<svg width="15" height="15" viewBox="0 0 15 15" fill="none" xmlns="http://www.w3.org/2000/svg">
<path d="M2.66667 10V8.00002C2.66667 7.63208 2.96539 7.33335 3.33333 7.33335H11.3333C11.7013 7.33335 12 7.63208 12 8.00002V10M7.33333 7.33335V4.66669M10.6667 10H13.3333C13.7013 10 14 10.2987 14 10.6667V13.3334C14 13.7013 13.7013 14 13.3333 14H10.6667C10.2987 14 10 13.7013 10 13.3334V10.6667C10 10.2987 10.2987 10 10.6667 10ZM1.33333 10H4C4.36794 10 4.66667 10.2987 4.66667 10.6667V13.3334C4.66667 13.7013 4.36794 14 4 14H1.33333C0.965391 14 0.666668 13.7013 0.666668 13.3334V10.6667C0.666668 10.2987 0.965391 10 1.33333 10ZM6 0.666687H8.66667C9.03461 0.666687 9.33333 0.96541 9.33333 1.33335V4.00002C9.33333 4.36796 9.03461 4.66669 8.66667 4.66669H6C5.63206 4.66669 5.33333 4.36796 5.33333 4.00002V1.33335C5.33333 0.96541 5.63206 0.666687 6 0.666687Z" stroke="#0F1724" stroke-width="1.33333" stroke-linecap="round" stroke-linejoin="round"/>
</svg>
