<svg width="16" height="16" viewBox="0 0 16 16" fill="none" xmlns="http://www.w3.org/2000/svg">
<path d="M6.44743 2.75711C6.52355 1.95634 7.19605 1.34473 8.00043 1.34473C8.80481 1.34473 9.47731 1.95634 9.55343 2.75711C9.59824 3.26374 9.8872 3.71671 10.3277 3.97089C10.7683 4.22507 11.3051 4.24854 11.7661 4.03378C12.4969 3.70197 13.3603 3.97887 13.7618 4.67385C14.1633 5.36882 13.9719 6.25505 13.3194 6.72244C12.9032 7.01448 12.6555 7.49101 12.6555 7.99944C12.6555 8.50788 12.9032 8.98441 13.3194 9.27644C13.9719 9.74383 14.1633 10.6301 13.7618 11.325C13.3603 12.02 12.4969 12.2969 11.7661 11.9651C11.3051 11.7503 10.7683 11.7738 10.3277 12.028C9.8872 12.2822 9.59824 12.7351 9.55343 13.2418C9.47731 14.0425 8.80481 14.6542 8.00043 14.6542C7.19605 14.6542 6.52355 14.0425 6.44743 13.2418C6.4027 12.735 6.11364 12.2818 5.67292 12.0276C5.2322 11.7734 4.6952 11.7501 4.2341 11.9651C3.50326 12.2969 2.63993 12.02 2.23842 11.325C1.83691 10.6301 2.02826 9.74383 2.68076 9.27644C3.09696 8.98441 3.34473 8.50788 3.34473 7.99944C3.34473 7.49101 3.09696 7.01448 2.68076 6.72244C2.02922 6.25484 1.83836 5.36941 2.23942 4.67492C2.64048 3.98043 3.50277 3.70317 4.23343 4.03378C4.69447 4.24854 5.23125 4.22507 5.67179 3.97089C6.11232 3.71671 6.40129 3.26374 6.4461 2.75711" stroke="#667085" stroke-width="1.33333" stroke-linecap="round" stroke-linejoin="round"/>
<path d="M6 8C6 9.10383 6.89617 10 8 10C9.10383 10 10 9.10383 10 8C10 6.89617 9.10383 6 8 6C6.89617 6 6 6.89617 6 8V8" stroke="#667085" stroke-width="1.33333" stroke-linecap="round" stroke-linejoin="round"/>
</svg>
