<svg width="15" height="15" viewBox="0 0 15 15" fill="none" xmlns="http://www.w3.org/2000/svg">
<path d="M7.01784 0.863283C7.07743 0.742877 7.20016 0.666687 7.3345 0.666687C7.46885 0.666687 7.59157 0.742877 7.65117 0.863283L9.19117 3.98262C9.39683 4.39961 9.79443 4.68877 10.2545 4.75595L13.6985 5.25995C13.8316 5.27924 13.9422 5.37244 13.9838 5.50035C14.0255 5.62827 13.9908 5.76871 13.8945 5.86262L11.4038 8.28795C11.0701 8.6127 10.9177 9.081 10.9965 9.53995L11.5845 12.9666C11.608 13.0997 11.5535 13.2345 11.4442 13.3139C11.3349 13.3934 11.1898 13.4035 11.0705 13.3399L7.99184 11.7213C7.58011 11.5048 7.08823 11.5048 6.6765 11.7213L3.5985 13.3399C3.47926 13.4031 3.33448 13.3928 3.22537 13.3134C3.11625 13.2341 3.06185 13.0995 3.08517 12.9666L3.6725 9.54062C3.7515 9.08145 3.59912 8.61284 3.26517 8.28795L0.774503 5.86328C0.677378 5.76948 0.642211 5.62851 0.683889 5.50008C0.725567 5.37164 0.836802 5.27819 0.970503 5.25928L4.41384 4.75595C4.8744 4.68918 5.27258 4.39996 5.4785 3.98262L7.01784 0.863283Z" stroke="#0F1724" stroke-width="1.33333" stroke-linecap="round" stroke-linejoin="round"/>
</svg>
