<svg width="12" height="3" viewBox="0 0 12 3" fill="none" xmlns="http://www.w3.org/2000/svg">
<path d="M5.33329 1.33335C5.33329 1.7013 5.63202 2.00002 5.99996 2.00002C6.3679 2.00002 6.66663 1.7013 6.66663 1.33335C6.66663 0.96541 6.3679 0.666687 5.99996 0.666687C5.63202 0.666687 5.33329 0.96541 5.33329 1.33335Z" stroke="#0F1724" stroke-width="1.33333" stroke-linecap="round" stroke-linejoin="round"/>
<path d="M9.99996 1.33335C9.99996 1.7013 10.2987 2.00002 10.6666 2.00002C11.0346 2.00002 11.3333 1.7013 11.3333 1.33335C11.3333 0.96541 11.0346 0.666687 10.6666 0.666687C10.2987 0.666687 9.99996 0.96541 9.99996 1.33335Z" stroke="#0F1724" stroke-width="1.33333" stroke-linecap="round" stroke-linejoin="round"/>
<path d="M0.666626 1.33335C0.666626 1.7013 0.965349 2.00002 1.33329 2.00002C1.70124 2.00002 1.99996 1.7013 1.99996 1.33335C1.99996 0.96541 1.70124 0.666687 1.33329 0.666687C0.965349 0.666687 0.666626 0.96541 0.666626 1.33335Z" stroke="#0F1724" stroke-width="1.33333" stroke-linecap="round" stroke-linejoin="round"/>
</svg>
