<svg width="12" height="12" viewBox="0 0 12 12" fill="none" xmlns="http://www.w3.org/2000/svg">
<path d="M8 10.5V9.50003C8 8.3962 7.10383 7.50003 6 7.50003H3C1.89617 7.50003 1 8.3962 1 9.50003V10.5M8 1.56403C8.88211 1.79271 9.4981 2.58876 9.4981 3.50003C9.4981 4.41129 8.88211 5.20734 8 5.43603M11 10.5V9.50003C10.9993 8.58858 10.3825 7.79289 9.5 7.56503" stroke="#667085" stroke-linecap="round" stroke-linejoin="round"/>
<path d="M2.5 3.5C2.5 4.21453 2.8812 4.87479 3.5 5.23205C4.1188 5.58932 4.8812 5.58932 5.5 5.23205C6.1188 4.87479 6.5 4.21453 6.5 3.5C6.5 2.39617 5.60383 1.5 4.5 1.5C3.39617 1.5 2.5 2.39617 2.5 3.5H2.5" stroke="#667085" stroke-linecap="round" stroke-linejoin="round"/>
</svg>
