<svg width="16" height="16" viewBox="0 0 16 16" fill="none" xmlns="http://www.w3.org/2000/svg">
<path d="M4.00001 9.33334L5.00001 7.4C5.22154 6.96006 5.66757 6.67808 6.16001 6.66667H13.3333C13.7461 6.66595 14.136 6.85646 14.3891 7.18258C14.6421 7.5087 14.7299 7.93365 14.6267 8.33334L13.6 12.3333C13.4472 12.9253 12.9114 13.3375 12.3 13.3333H2.66668C1.93079 13.3333 1.33334 12.7359 1.33334 12V3.33334C1.33334 2.59745 1.93079 2 2.66668 2H5.26668C5.71979 1.99556 6.14414 2.22155 6.39334 2.6L6.93334 3.4C7.17996 3.77448 7.59829 3.99993 8.04668 4H12C12.7359 4 13.3333 4.59745 13.3333 5.33334V6.66667" stroke="#667085" stroke-width="1.33333" stroke-linecap="round" stroke-linejoin="round"/>
</svg>
