<svg width="18" height="18" viewBox="0 0 18 18" fill="none" xmlns="http://www.w3.org/2000/svg">
<path d="M9 2.25H3.75C2.92213 2.25 2.25 2.92213 2.25 3.75V14.25C2.25 15.0779 2.92213 15.75 3.75 15.75H14.25C15.0779 15.75 15.75 15.0779 15.75 14.25V9" stroke="#667085" stroke-width="1.33333" stroke-linecap="round" stroke-linejoin="round"/>
<path d="M13.7813 1.96892C14.4022 1.34802 15.4104 1.34802 16.0313 1.96892C16.6522 2.58982 16.6522 3.59802 16.0313 4.21892L9.27152 10.9794C9.09343 11.1574 8.87342 11.2876 8.63177 11.3582L6.47702 11.9882C6.34557 12.0265 6.20367 11.9902 6.10685 11.8933C6.01003 11.7965 5.97368 11.6546 6.01202 11.5232L6.64202 9.36842C6.71291 9.12696 6.84342 8.90721 7.02152 8.72942L13.7813 1.96892" stroke="#667085" stroke-width="1.33333" stroke-linecap="round" stroke-linejoin="round"/>
</svg>
