<svg width="18" height="18" viewBox="0 0 18 18" fill="none" xmlns="http://www.w3.org/2000/svg">
<path d="M11.25 3.75C11.25 4.99181 12.2582 6 13.5 6C14.7418 6 15.75 4.99181 15.75 3.75C15.75 2.50819 14.7418 1.5 13.5 1.5C12.2582 1.5 11.25 2.50819 11.25 3.75V3.75" stroke="#667085" stroke-width="1.33333" stroke-linecap="round" stroke-linejoin="round"/>
<path d="M2.25 9C2.25 10.2418 3.25819 11.25 4.5 11.25C5.74181 11.25 6.75 10.2418 6.75 9C6.75 7.75819 5.74181 6.75 4.5 6.75C3.25819 6.75 2.25 7.75819 2.25 9H2.25" stroke="#667085" stroke-width="1.33333" stroke-linecap="round" stroke-linejoin="round"/>
<path d="M11.25 14.25C11.25 15.4918 12.2582 16.5 13.5 16.5C14.7418 16.5 15.75 15.4918 15.75 14.25C15.75 13.0082 14.7418 12 13.5 12C12.2582 12 11.25 13.0082 11.25 14.25V14.25" stroke="#667085" stroke-width="1.33333" stroke-linecap="round" stroke-linejoin="round"/>
<path d="M6.4425 10.1323L11.565 13.1173M11.5575 4.88232L6.4425 7.86732" stroke="#667085" stroke-width="1.33333" stroke-linecap="round" stroke-linejoin="round"/>
</svg>
